<svg width="168" height="249" viewBox="0 0 168 249" fill="none" xmlns="http://www.w3.org/2000/svg">
<path d="M0 8C0 3.58172 3.58172 0 8 0H160C164.418 0 168 3.58172 168 8V241C168 245.418 164.418 249 160 249H8C3.58172 249 0 245.418 0 241V8Z" fill="#6A486B"/>
<mask id="mask0" mask-type="alpha" maskUnits="userSpaceOnUse" x="0" y="0" width="168" height="249">
<path d="M0 0H168L86.4706 118.5L0 249V0Z" fill="black"/>
</mask>
<g mask="url(#mask0)">
<path d="M0 8C0 3.58172 3.58172 0 8 0H160C164.418 0 168 3.58172 168 8V241C168 245.418 164.418 249 160 249H8C3.58172 249 0 245.418 0 241V8Z" fill="#513752"/>
</g>
<g clip-path="url(#clip0)">
<path d="M130.111 82.1491C120.695 82.751 54.5455 88.5976 49.9382 130.502C49.3781 134.981 49.0617 139.48 48.8544 143.983L81.369 113.949C82.5051 112.898 84.3508 112.898 85.4878 113.947C86.6248 114.997 86.6255 116.699 85.4893 117.749L38.318 161.322C36.6129 162.897 36.6139 165.451 38.3203 167.024C40.0267 168.598 42.7925 168.596 44.4994 167.022L54.8844 157.429C62.5383 157.403 70.1866 156.998 77.7892 156.183C87.514 155.266 95.4301 151.729 101.894 146.675L83.5371 146.682L110.227 138.459C112.272 135.957 114.111 133.298 115.761 130.541L101.006 130.547L120.376 121.599C127.99 104.471 129.783 86.5611 130.111 82.1491Z" fill="#FFC54D"/>
</g>
<defs>
<clipPath id="clip0">
<rect width="93.1052" height="86.0188" fill="white" transform="translate(37 82.1869) rotate(-0.0232464)"/>
</clipPath>
</defs>
</svg>
