<svg width="486" height="383" viewBox="0 0 486 383" fill="none" xmlns="http://www.w3.org/2000/svg">
<path d="M272.216 0C272.749 0.506509 273.442 0.379878 274.028 0.569819C277.334 1.70946 279.679 4.05206 280.639 8.10414C280.799 8.80059 281.065 9.11716 281.599 9.3071C282.771 9.7503 283.944 10.1935 285.117 10.7C285.65 10.9533 286.397 10.9533 286.343 11.9663C286.29 12.8527 285.65 12.916 285.117 13.1059C283.731 13.6124 282.345 14.1822 280.959 14.6254C280.532 14.7521 280.212 15.0686 280.052 15.5751C278.826 18.5509 276.854 20.5136 274.188 21.4C274.028 21.4633 273.868 21.5266 273.708 21.5899C273.655 21.6533 273.602 21.7166 273.495 21.7166C273.602 21.7799 273.708 21.8432 273.815 21.8432C274.135 21.8432 274.508 21.8432 274.828 21.8432C281.492 21.8432 288.156 21.8432 294.767 21.8432C296.579 21.8432 296.846 22.2864 295.993 24.2491C294.447 27.6047 292.314 30.2006 289.489 31.9734C289.009 32.29 288.689 32.6065 288.476 33.2397C287.037 37.7349 284.691 41.4704 281.279 44.1929C281.065 44.3195 280.746 44.4462 280.852 44.826C280.906 45.0793 281.225 45.016 281.439 45.0793C282.505 45.3959 283.624 45.6491 284.637 46.029C285.277 46.2823 285.544 46.029 285.864 45.3959C286.877 43.4331 287.89 41.5337 288.902 39.571C289.009 39.3811 289.116 39.1278 289.222 38.9379C289.436 38.4947 289.702 38.1148 290.235 38.2414C290.662 38.3681 290.822 38.7479 290.928 39.1911C291.248 40.7107 291.568 42.2302 291.941 43.7497C292.208 44.7627 292.101 46.1556 292.794 46.6621C293.434 47.1053 294.394 46.4089 295.247 46.219C296.42 45.9657 297.592 45.6491 298.765 45.3326C299.245 45.2059 299.832 44.8894 300.205 45.5225C300.631 46.1556 300.258 46.7888 299.938 47.2953C299.032 49.0681 298.126 50.8409 297.166 52.6136C296.793 53.3101 296.846 53.6899 297.379 54.2598C301.271 58.3752 303.883 63.4403 305.429 69.3284C307.669 77.9391 310.068 86.4864 312.36 95.0971C312.627 95.9835 313.106 95.9835 313.586 96.0468C316.199 96.49 318.598 97.5663 320.784 99.4024C326.381 103.961 329.1 112.192 327.608 120.043C326.061 128.083 320.73 134.098 314.013 135.428C313 135.618 311.987 135.681 310.974 135.681C310.014 135.681 310.014 135.681 309.961 136.884C309.961 137.201 309.961 137.517 309.961 137.77C309.961 156.448 309.961 175.126 309.961 193.866C309.961 196.842 310.601 198.235 313.64 198.615C315.132 198.805 316.625 198.931 318.065 199.311C320.997 200.134 323.289 201.97 324.995 204.883C326.008 206.592 326.701 208.492 327.288 210.455C330.486 220.965 333.739 231.475 336.937 241.985C337.311 243.251 337.79 244.517 338.217 245.784C338.377 246.353 338.643 246.417 339.07 246.29C340.136 245.847 341.149 245.404 342.215 245.024C343.175 244.644 343.441 244.771 343.761 245.91C345.361 251.545 346.907 257.243 348.453 262.942C348.773 264.145 348.613 264.398 347.6 264.841C347.067 265.094 346.48 265.284 345.894 265.537C345.094 265.854 345.094 265.917 345.414 266.804C346.267 269.4 347.173 271.995 348.026 274.528C352.238 286.811 356.45 299.094 360.662 311.376C360.928 312.2 361.301 312.833 361.994 313.213C363.807 314.289 365.087 316.062 365.833 318.278C365.993 318.721 366.153 319.101 366.313 319.544C366.366 319.671 366.419 319.924 366.473 319.924C366.633 319.924 366.739 319.734 366.793 319.544C366.846 319.354 366.899 319.164 367.006 318.974C368.285 315.998 371.111 314.859 373.67 316.252C373.883 316.378 374.043 316.505 374.203 316.631C374.63 316.948 374.789 316.758 374.896 316.252C375.376 314.036 375.856 311.82 376.336 309.667C377.135 305.931 377.935 302.196 378.788 298.524C379.108 296.941 379.214 296.941 380.494 296.878C380.76 296.878 381.027 296.878 381.24 296.878C381.507 296.878 381.773 296.814 381.773 296.371C381.773 295.991 381.72 295.738 381.347 295.611C380.121 295.231 380.121 295.168 380.067 293.775C380.067 292.762 380.067 291.749 380.067 290.736C380.121 289.533 380.281 289.28 381.294 289.28C382.893 289.28 384.546 289.28 386.145 289.28C389.984 289.28 393.822 289.28 397.661 289.28C399.047 289.28 399.1 289.407 399.1 290.989C399.1 292.066 399.1 293.142 399.1 294.155C399.1 294.978 398.993 295.611 398.14 295.548C397.661 295.548 397.554 295.865 397.607 296.371C397.661 296.878 397.981 296.814 398.3 296.814C398.834 296.878 399.313 296.751 399.846 296.941C400.54 297.257 400.54 297.194 400.54 296.308C400.54 288.077 400.54 279.91 400.54 271.679C400.54 269.4 400.54 269.399 402.406 269.399C403.365 269.399 404.271 269.399 405.231 269.399C405.711 269.399 406.084 269.336 406.084 268.64C406.084 268.07 406.084 267.627 405.391 267.5C404.485 267.373 404.431 267.247 404.378 266.171C404.378 264.968 404.325 263.765 404.378 262.498C404.431 261.422 404.591 261.169 405.551 261.169C411.096 261.169 416.64 261.169 422.185 261.169C423.251 261.169 423.357 261.359 423.411 262.562C423.411 263.701 423.411 264.904 423.411 266.044C423.411 266.804 423.304 267.5 422.451 267.5C421.811 267.5 421.865 268.07 421.865 268.576C421.865 269.146 422.078 269.399 422.558 269.399C423.731 269.399 424.957 269.399 426.13 269.399C427.089 269.399 427.249 269.653 427.303 270.729C427.303 271.109 427.303 271.426 427.303 271.805C427.303 289.343 427.303 306.881 427.303 324.356C427.303 324.736 427.303 325.179 427.303 325.559C427.249 326.445 427.036 326.698 426.29 326.762C425.917 326.825 425.543 326.762 425.117 326.762C411.469 326.762 397.821 326.762 384.173 326.762C383.853 326.762 383.586 326.762 383.266 326.762C382.147 326.762 382.2 326.762 382.04 328.091C381.987 328.851 381.88 329.611 381.827 330.371C381.4 334.296 378.095 336.639 375.003 335.119C374.256 334.739 373.777 334.739 373.03 335.246C370.205 337.208 366.686 335.436 365.726 331.7C365.46 330.624 365.46 330.624 364.607 330.94C361.994 332.08 359.435 330.877 358.262 327.965C357.943 327.142 357.569 326.762 356.77 326.762C351.598 326.825 346.427 326.762 341.309 326.762C340.136 326.762 340.136 326.762 340.563 328.091C343.495 337.462 346.427 346.895 349.413 356.266C351.385 362.597 353.411 368.992 355.437 375.323C355.863 376.59 355.917 377.602 355.117 378.679C354.584 379.439 354.211 380.262 353.784 381.085C353.144 382.161 353.038 382.224 352.025 381.718C348.24 379.945 344.348 378.362 340.403 377.096C333.099 374.753 325.688 373.361 318.118 372.917C302.071 371.968 286.61 375.26 271.842 382.668C270.936 383.111 270.136 383.111 269.283 382.668C261.393 378.679 253.236 375.893 244.759 374.31C238.522 373.107 232.231 372.601 225.887 372.791C213.251 373.234 201.043 376.083 189.261 381.655C187.875 382.288 187.875 382.288 187.075 380.895C186.755 380.325 186.488 379.629 186.115 379.122C185.209 377.856 185.209 376.653 185.689 375.133C190.594 359.685 195.445 344.173 200.35 328.661C200.99 326.698 200.883 326.952 199.284 326.952C147.144 326.952 94.9502 326.952 42.8102 326.952C40.731 326.952 40.6244 327.332 40.6777 324.356C40.6777 324.166 40.6777 323.976 40.6777 323.723C40.5711 322.076 40.9443 320.81 41.8506 319.481C46.1689 313.213 45.9024 304.539 41.3708 298.46C40.891 297.827 40.6777 297.258 40.6777 296.434C40.731 295.485 40.6777 294.535 40.6777 293.522C40.6777 291.876 40.7843 291.749 42.1172 291.749C44.8361 291.749 47.5551 291.749 50.3274 291.749C52.2466 291.749 54.1659 291.749 56.0851 291.749C56.6716 291.749 56.8848 291.559 56.6183 290.863C56.2984 289.976 56.2451 288.963 56.3517 288.014C56.6183 285.988 58.0044 284.468 59.7104 284.278C60.0836 284.215 60.4568 284.278 60.8833 284.278C66.2679 284.278 71.6525 284.278 76.9838 284.278C77.3037 284.278 77.6769 284.278 77.9967 284.278C78.4232 284.278 78.6365 284.088 78.6365 283.582C78.6365 283.075 78.6365 282.569 78.6365 282.062C78.6365 246.29 78.6365 210.518 78.6365 174.809C78.6365 170.504 79.916 166.958 82.4217 163.919C90.7385 154.105 99.002 144.228 107.319 134.352C108.332 133.149 108.332 133.149 107.212 132.072C105.026 129.92 102.787 127.767 100.601 125.614C99.2153 124.221 98.8421 122.449 99.5885 120.739C99.8017 120.296 100.068 119.916 100.335 119.473C101.614 117.51 102.947 115.611 104.28 113.648C105.08 112.445 105.08 112.445 104.44 111.052C103.64 109.406 102.894 107.76 102.094 106.177C101.934 105.86 101.828 105.544 101.668 105.227C101.454 104.657 101.561 104.214 101.988 103.961C102.414 103.644 102.787 103.898 103.054 104.341C103.214 104.657 103.374 104.974 103.534 105.227C104.227 106.747 104.92 108.266 105.666 109.723C106.199 110.799 106.199 110.799 106.839 109.849C107.799 108.456 108.758 107.127 109.611 105.67C111.104 103.201 113.396 103.265 115.049 104.911C118.888 108.709 122.833 112.382 126.671 116.117C129.124 118.46 131.789 120.296 134.722 121.562C146.77 126.754 158.819 132.072 170.921 137.137C174.013 138.404 174.653 141.633 172.68 144.545C163.511 157.841 154.447 171.327 145.331 184.749C144.798 185.509 144.265 186.205 143.465 186.522C142.026 187.092 140.586 186.522 139.68 184.939C138.88 183.546 138.187 182.153 137.387 180.697C131.096 168.857 124.752 157.018 118.461 145.115C116.595 141.633 114.249 138.72 111.531 136.251C110.891 135.681 110.358 134.605 109.611 134.605C108.812 134.605 108.332 135.808 107.745 136.504C99.6418 146.065 91.5915 155.688 83.488 165.312C81.2488 167.971 80.1826 171.073 80.1826 174.809C80.1826 210.581 80.1826 246.353 80.1826 282.062C80.1826 284.531 79.916 284.215 82.0485 284.215C87.4331 284.215 92.8177 284.215 98.149 284.215C98.7354 284.215 99.3219 284.215 99.9083 284.468C101.881 285.291 102.894 287.76 102.307 290.293C102.254 290.483 102.201 290.673 102.147 290.863C101.828 291.623 102.201 291.749 102.681 291.749C103 291.749 103.374 291.749 103.694 291.749C110.304 291.749 116.915 291.749 123.526 291.749C124.219 291.749 124.912 291.813 125.552 291.813C125.658 291.813 125.765 291.749 125.872 291.686C125.818 291.559 125.818 291.369 125.712 291.306C125.392 290.926 125.019 290.546 124.646 290.166C118.141 283.392 111.637 276.617 105.08 269.843C104.866 269.589 104.653 269.4 104.387 269.146C103.96 268.703 103.96 268.133 104.28 267.627C105.08 266.487 105.879 265.411 106.732 264.334C107.052 263.955 107.532 264.018 107.959 263.955C113.61 263.258 118.674 258.066 119.847 250.785C120.007 249.646 120.061 248.443 120.061 247.303C120.061 246.607 120.221 246.037 120.594 245.53C121.18 244.771 121.767 243.947 122.353 243.124C123.153 242.111 123.366 242.048 124.272 242.998C126.245 245.024 128.271 247.113 130.243 249.202C145.331 264.904 160.418 280.543 175.506 296.181C177.532 298.271 179.078 300.676 179.718 303.779C180.571 307.958 180.091 311.946 177.852 315.302C175.719 318.468 173.64 321.697 170.974 324.229C170.868 324.356 170.655 324.482 170.708 324.672C170.761 324.926 170.974 324.862 171.134 324.862C171.401 324.862 171.667 324.862 171.881 324.862C181.264 324.862 190.647 324.862 200.03 324.862C201.576 324.862 201.309 325.052 201.843 323.406C202.429 321.633 203.015 319.797 203.549 318.024C203.815 317.138 204.242 316.631 204.988 316.252C209.093 314.226 213.305 312.579 217.623 311.313C217.943 311.186 218.476 311.25 218.529 310.87C218.583 310.49 218.05 310.49 217.73 310.363C211.759 307.704 205.734 305.045 199.763 302.386C194.752 300.107 191.66 295.865 190.594 289.597C190.007 286.304 190.327 283.075 191.447 279.91C192.939 275.731 194.379 271.615 195.871 267.437C196.351 266.107 196.565 266.171 195.178 265.601C194.432 265.284 193.739 265.031 192.993 264.714C192.14 264.334 192.033 264.018 192.246 262.942C192.406 262.245 192.619 261.612 192.779 260.915C194.165 256.04 195.498 251.102 196.884 246.227C197.311 244.644 197.524 244.517 198.804 245.024C199.817 245.404 200.83 245.847 201.843 246.29C202.269 246.48 202.482 246.353 202.642 245.91C202.855 245.214 203.069 244.581 203.282 243.947C206.694 232.804 210.106 221.598 213.571 210.455C214.105 208.682 214.744 206.972 215.597 205.389C217.783 201.274 220.982 199.311 224.927 198.931C225.833 198.805 226.686 198.741 227.593 198.615C229.938 198.235 230.791 197.095 230.791 194.31C230.791 191.904 230.791 189.561 230.791 187.155C230.791 185.826 230.791 185.826 229.725 185.572C220.129 183.23 212.505 177.278 206.907 167.781C204.508 163.729 203.015 159.17 201.736 154.485C197.044 137.011 192.3 119.536 187.608 101.998C187.341 100.922 186.915 100.352 185.955 100.036C180.038 98.0095 174.706 94.7805 170.228 89.7154C168.842 88.1326 167.616 86.4231 166.549 84.4604C166.389 84.2071 166.283 83.9539 166.176 83.7006C165.856 82.8142 166.07 82.371 166.976 82.0545C169.268 81.1681 171.508 80.345 173.8 79.4586C191.02 72.874 208.293 66.2894 225.513 59.7681C236.976 55.3994 248.385 51.0308 259.847 46.7255C260.807 46.3456 261.82 46.0923 262.832 45.8391C262.992 45.7758 263.206 45.7124 263.259 45.5858C263.366 45.2692 263.046 45.2059 262.886 45.0793C260.54 43.4965 258.621 41.3438 257.128 38.7479C254.036 33.4296 253.023 27.4781 253.556 21.0834C253.929 16.968 254.995 13.1059 256.968 9.62367C259.74 4.74852 263.472 1.58284 268.484 0.633136C268.697 0.569823 268.91 0.633131 269.07 0.379876C270.19 -5.81163e-06 271.203 0 272.216 0Z" fill="#151D38"/>
<path d="M270.616 196.462C272.109 196.462 273.602 196.462 275.094 196.399C282.132 196.336 289.116 195.449 296.046 193.93C299.885 193.043 303.67 191.904 307.402 190.447C308.042 190.194 308.468 189.878 308.361 188.991C308.308 188.738 308.361 188.485 308.361 188.231C308.361 171.2 308.361 154.169 308.361 137.201C308.361 136.884 308.361 136.568 308.361 136.314C308.415 135.618 308.202 135.365 307.615 135.175C306.549 134.858 306.282 134.478 306.442 133.782C306.602 133.212 306.975 133.085 307.988 133.339C309.748 133.782 311.507 133.845 313.32 133.592C321.53 132.199 327.288 123.272 326.221 113.458C325.048 102.378 315.452 94.9705 306.282 98.7693C305.323 99.1492 304.416 99.719 303.51 100.289C303.03 100.605 302.604 100.605 302.284 100.036C301.964 99.4024 302.284 98.9592 302.71 98.6426C303.083 98.3894 303.457 98.1361 303.83 97.8829C303.937 97.8196 304.096 97.6929 304.096 97.5663C304.096 97.2497 303.883 97.3764 303.723 97.313C303.35 97.2497 302.977 97.1864 302.604 97.1231C299.831 96.6799 297.219 95.6036 294.767 94.0841C289.275 90.6018 285.277 85.4101 282.558 78.8255C282.025 77.4959 282.132 77.6225 281.065 77.9391C273.228 80.2184 265.338 82.0545 257.341 83.2574C252.063 84.0805 246.732 84.6503 241.401 84.9036C238.628 85.0302 235.856 84.9669 233.084 85.0302C232.87 85.0302 232.604 84.9036 232.497 85.2202C232.391 85.4734 232.604 85.6634 232.764 85.8533C233.564 87.0563 234.363 88.2592 235.11 89.4622C235.963 90.7917 236.656 92.248 237.295 93.7042C237.722 94.6539 237.562 95.0338 236.762 95.477C236.602 95.5403 236.442 95.6036 236.283 95.6669C226.953 99.1492 217.463 101.745 207.654 102.505C203.282 102.821 198.964 102.758 194.645 102.125C193.046 101.872 191.446 101.618 189.847 101.175C189.421 101.049 189.207 101.238 189.314 101.808C189.367 102.062 189.474 102.315 189.527 102.505C194.165 119.599 198.75 136.694 203.388 153.789C204.295 157.208 205.254 160.627 206.854 163.729C214.104 177.911 224.714 184.813 238.682 184.369C241.987 184.243 245.186 183.293 248.278 182.09C248.704 181.9 249.131 181.647 249.611 181.647C249.984 181.647 250.25 181.837 250.357 182.28C250.464 182.723 250.357 183.103 250.037 183.356C249.877 183.483 249.717 183.546 249.557 183.61C246.359 184.939 243.107 185.952 239.748 186.269C237.562 186.459 235.43 186.459 233.244 186.269C232.711 186.205 232.444 186.395 232.444 187.092C232.497 187.788 232.497 188.485 232.444 189.244C232.391 190.004 232.604 190.447 233.297 190.637C234.843 191.081 236.336 191.587 237.882 192.03C246.092 194.31 254.356 195.766 262.779 196.462C265.445 196.272 268.004 196.336 270.616 196.462Z" fill="#FAE0D6"/>
<path d="M308.628 273.705C308.628 262.688 308.628 251.608 308.628 240.592C308.628 240.212 308.628 239.769 308.628 239.389C308.628 238.756 308.895 238.312 309.481 238.312C310.014 238.312 310.228 238.756 310.228 239.326C310.228 239.642 310.228 239.959 310.228 240.212C310.174 240.908 310.334 241.605 310.547 242.301C311.987 246.543 313.373 250.785 314.812 254.964C315.186 256.104 315.186 256.104 316.199 255.66C319.557 254.268 322.863 252.875 326.221 251.482C329.367 250.152 332.512 248.886 335.604 247.556C336.777 247.05 336.777 247.05 336.351 245.657C335.871 244.011 335.338 242.301 334.805 240.655C331.766 230.715 328.727 220.775 325.688 210.834C325.155 209.188 324.569 207.542 323.716 206.086C322.063 203.047 319.717 201.337 316.732 200.831C315.399 200.641 314.013 200.451 312.68 200.261C311.24 200.008 309.961 199.438 309.108 197.918C308.522 196.842 308.522 196.842 307.562 197.222C297.113 201.211 286.397 202.857 275.468 203.173C269.017 203.3 262.619 203.047 256.168 202.16C250.57 201.401 245.026 200.388 239.535 198.931C237.402 198.362 235.323 197.665 233.19 197.032C232.764 196.905 232.284 196.589 231.964 197.349C231.111 199.311 229.619 200.071 227.913 200.324C226.58 200.514 225.194 200.704 223.861 200.894C220.982 201.401 218.689 203.173 217.09 206.086C216.29 207.605 215.651 209.188 215.117 210.834C214.318 213.494 213.465 216.153 212.665 218.812C209.893 227.802 207.174 236.793 204.402 245.784C204.028 247.113 204.028 247.113 205.148 247.556C211.599 250.279 218.103 252.938 224.554 255.66C225.673 256.104 225.673 256.104 226.1 254.837C227.273 251.418 228.392 248 229.565 244.581C230.152 242.934 230.791 241.352 230.578 239.515C230.578 239.389 230.578 239.326 230.578 239.199C230.631 238.692 230.898 238.376 231.325 238.312C231.751 238.312 232.071 238.629 232.124 239.136C232.178 239.642 232.178 240.149 232.178 240.655C232.178 256.547 232.178 272.439 232.178 288.33C232.178 288.71 232.231 289.027 232.178 289.407C232.071 290.23 232.337 290.673 233.031 290.989C234.843 291.686 236.656 292.066 238.575 291.686C240.228 291.306 241.934 290.926 243.586 290.483C245.239 290.103 246.839 289.723 248.545 289.976C249.291 290.103 249.984 290.293 250.677 290.546C251.157 290.736 251.317 290.483 251.21 289.976C251.157 289.66 251.05 289.407 250.997 289.09C250.357 286.178 249.611 283.265 249.024 280.289C247.372 272.375 246.039 264.398 245.452 256.23C245.399 255.407 245.399 254.584 245.399 253.824C245.399 253.381 245.612 253.191 245.932 253.065C246.252 252.938 246.572 253.065 246.732 253.381C246.998 253.824 247.212 254.331 247.425 254.837C248.864 258.256 250.144 261.739 251.264 265.284C253.823 273.262 255.902 281.492 257.661 289.786C257.874 290.8 258.194 291.369 259.154 291.623C261.819 292.382 263.739 295.231 264.112 298.46C264.325 300.423 264.112 302.386 264.059 304.349C264.005 305.425 263.472 306.311 262.672 306.691C261.553 307.261 261.5 308.401 261.393 309.54C261.393 309.857 261.446 310.237 261.393 310.617C261.286 311.946 261.66 312.706 262.726 313.086C265.072 313.909 267.364 314.859 269.55 316.062C270.35 316.505 271.043 316.442 271.842 316.062C280.852 311.63 290.289 309.16 300.045 308.654C302.497 308.527 304.896 308.527 307.349 308.654C308.628 308.717 308.628 308.717 308.628 307.134C308.628 306.818 308.628 306.501 308.628 306.248C308.628 295.231 308.628 284.468 308.628 273.705Z" fill="#ACDCF6"/>
<path d="M271.309 346.769C271.309 355.759 271.309 364.686 271.309 373.677C271.309 375.64 271.256 375.64 272.748 374.88C289.755 366.776 307.295 363.99 325.475 366.459C334.698 367.726 343.655 370.448 352.291 374.437C352.664 374.627 353.144 375.07 353.411 374.817C353.731 374.437 353.304 373.867 353.198 373.424C347.6 355.506 341.949 337.588 336.351 319.671C336.031 318.594 335.498 317.961 334.591 317.518C321.956 311.503 308.948 309.224 295.406 310.807C287.516 311.756 279.892 314.036 272.535 317.581C271.042 318.278 271.256 318.088 271.256 319.86C271.309 328.851 271.309 337.842 271.309 346.769Z" fill="white"/>
<path d="M269.71 346.769C269.71 337.778 269.71 328.851 269.71 319.86C269.71 319.481 269.71 319.037 269.71 318.658C269.71 318.278 269.603 318.024 269.283 317.834C267.95 317.265 266.671 316.631 265.338 316.062C264.965 315.872 264.805 316.062 264.912 316.568C265.231 317.961 265.178 319.354 265.072 320.81C264.912 323.596 264.112 326.255 264.272 329.104C264.325 329.547 264.059 329.864 263.685 329.991C263.312 330.117 262.939 329.864 262.832 329.484C262.566 328.345 261.766 328.155 261.02 327.838C258.514 326.888 255.955 326.129 253.343 325.432C253.076 325.369 252.756 325.242 252.49 325.179C252.117 325.052 251.957 324.672 252.01 324.229C252.063 323.723 252.383 323.406 252.81 323.406C253.076 323.406 253.289 323.469 253.556 323.533C255.369 323.976 257.128 324.482 258.887 325.052C259.207 325.179 259.527 325.305 259.9 325.369C260.113 325.432 260.22 325.242 260.113 325.052C259.9 324.736 259.687 324.419 259.474 324.102C258.674 322.963 257.928 321.823 257.394 320.43C256.755 318.784 256.755 317.201 257.501 315.618C257.821 314.985 258.567 314.352 257.874 313.466C257.181 312.643 256.595 313.339 255.955 313.656C255.369 313.909 255.369 314.289 255.475 314.922C255.848 317.518 254.462 319.544 252.223 319.544C251.583 319.544 251.37 319.797 251.157 320.494C250.837 321.633 250.144 322.456 249.184 322.9C248.864 323.026 248.545 323.089 248.331 323.533C248.065 324.102 247.585 324.103 247.105 324.039C242.36 323.279 237.615 322.9 232.817 323.026C232.497 323.026 232.124 323.026 231.804 323.026C231.431 323.026 231.165 322.773 231.111 322.33C231.058 321.823 231.271 321.443 231.644 321.253C231.858 321.19 232.071 321.19 232.284 321.19C235.163 321.127 238.095 321.063 240.974 321.38C241.401 321.443 241.827 321.443 242.254 321.443C242.36 321.443 242.467 321.443 242.467 321.38C242.52 321.19 242.414 321.127 242.307 321.063C242.094 320.937 241.934 320.873 241.721 320.81C235.43 318.024 229.139 315.175 222.794 312.389C222.261 312.136 221.782 312.073 221.195 312.263C216.184 313.466 211.279 315.302 206.534 317.518C205.734 317.898 205.255 318.468 204.935 319.481C199.337 337.335 193.739 355.19 188.141 373.107C187.981 373.677 187.448 374.374 187.821 374.753C188.141 375.133 188.728 374.5 189.207 374.31C198.964 369.752 209.04 366.966 219.489 365.953C226.633 365.256 233.777 365.383 240.921 366.396C250.411 367.726 259.58 370.511 268.43 374.753C269.763 375.387 269.71 375.513 269.71 373.74C269.71 364.813 269.71 355.759 269.71 346.769Z" fill="white"/>
<path d="M100.974 122.259C100.974 123.208 101.508 123.715 102.041 124.221C105.933 128.02 109.878 131.882 113.77 135.681C116.115 137.96 118.141 140.62 119.794 143.722C126.565 156.511 133.389 169.301 140.213 182.09C140.533 182.66 140.799 183.293 141.172 183.863C141.865 184.876 142.825 184.939 143.625 184.053C143.785 183.863 143.945 183.61 144.105 183.356C153.221 169.934 162.284 156.511 171.401 143.152C172.894 140.999 172.36 139.67 170.335 138.783C158.233 133.592 146.13 128.337 134.028 123.145C130.936 121.815 128.164 119.916 125.605 117.51C121.713 113.711 117.768 109.976 113.876 106.24C112.65 105.101 111.957 105.164 110.944 106.62C110.038 107.886 109.185 109.216 108.278 110.546C106.039 113.838 103.8 117.194 101.561 120.486C101.294 121.056 100.921 121.562 100.974 122.259Z" fill="#EDCFE4"/>
<path d="M237.189 293.649C234.79 293.649 232.657 292.952 230.685 291.686C224.927 287.95 219.169 284.215 213.411 280.479C213.198 280.353 213.038 280.226 212.878 280.1C212.452 279.783 212.239 279.403 212.452 278.833C212.718 278.2 213.198 278.2 213.678 278.453C213.891 278.58 214.105 278.707 214.371 278.897C215.171 279.403 215.97 279.91 216.717 280.416C217.143 280.733 217.41 280.606 217.57 280.036C217.943 278.833 218.423 277.567 218.796 276.364C219.063 275.478 219.063 275.414 218.263 275.098C211.812 272.375 205.308 269.716 198.857 266.994C198.057 266.677 198.004 266.677 197.631 267.69C196.031 272.122 194.485 276.554 192.939 280.986C192.086 283.455 191.82 286.114 192.246 288.71C193.153 294.535 195.978 298.46 200.67 300.55C211.386 305.298 222.155 310.11 232.871 314.859C237.562 316.948 242.2 319.037 246.892 321.063C248.225 321.633 249.131 321.317 249.611 320.05C250.037 318.974 249.824 318.341 248.705 317.328C246.679 315.492 244.599 313.719 242.574 311.883C241.827 311.187 241.667 310.68 241.987 310.173C242.307 309.604 242.734 309.667 243.533 310.363C244.653 311.313 245.719 312.326 246.839 313.276C248.385 314.605 249.931 315.998 251.477 317.328C252.277 318.024 253.076 317.834 253.663 317.011C254.249 316.188 254.196 315.239 253.556 314.415C253.396 314.226 253.183 314.036 252.97 313.782C250.73 311.376 248.491 308.907 246.252 306.501C246.039 306.311 245.826 306.121 245.666 305.868C245.346 305.425 245.346 304.918 245.719 304.475C246.039 304.095 246.412 304.095 246.732 304.412C246.945 304.602 247.158 304.855 247.425 305.108C249.291 307.071 251.21 309.097 253.076 311.06C253.396 311.376 253.716 311.693 254.089 311.946C254.676 312.263 255.262 312.2 255.742 311.63C256.222 311.123 256.382 310.49 256.222 309.73C256.115 309.224 255.795 308.971 255.529 308.654C253.396 306.058 251.21 303.462 249.078 300.866C248.864 300.613 248.651 300.36 248.438 300.107C248.118 299.663 248.065 299.157 248.438 298.714C248.811 298.271 249.184 298.334 249.558 298.714C249.931 299.094 250.251 299.473 250.571 299.853C252.81 302.386 254.995 304.855 257.235 307.388C257.501 307.641 257.714 307.957 258.034 308.147C259.101 308.844 260.167 308.147 260.22 306.755C260.273 306.185 260.114 305.615 259.847 305.172C257.928 301.879 256.062 298.524 253.983 295.421C251.85 292.256 248.864 291.179 245.506 291.876C244.226 292.129 242.947 292.509 241.614 292.826C240.121 293.205 238.628 293.712 237.189 293.649Z" fill="#FAE0D6"/>
<path d="M84.5008 320.367C97.5625 320.367 110.571 320.367 123.632 320.367C124.326 320.367 125.019 320.367 125.658 320.177C128.644 319.291 130.403 316.378 130.403 312.326C130.403 309.92 130.723 310.11 128.591 310.11C118.941 310.11 109.345 310.11 99.695 310.11C99.2685 310.11 98.842 310.11 98.4155 310.047C97.9357 309.984 97.6158 309.667 97.6691 309.034C97.7224 308.527 97.989 308.211 98.4688 308.211C98.842 308.211 99.2152 308.211 99.6417 308.211C108.225 308.211 116.755 308.211 125.338 308.211C126.725 308.211 128.164 308.211 129.55 308.211C130.19 308.211 130.51 308.021 130.457 307.198C130.403 306.501 130.51 305.805 130.457 305.045C130.243 301.943 129.017 299.663 126.618 298.46C125.658 297.954 124.645 297.891 123.632 297.891C97.4025 297.891 71.1726 297.891 44.9427 297.891C44.6761 297.891 44.4096 297.891 44.1963 297.891C43.7165 297.891 43.5565 298.081 43.8231 298.587C44.3029 299.41 44.7827 300.297 45.1026 301.183C45.2626 301.563 45.5291 301.816 45.9023 301.753C46.2222 301.753 46.5954 301.753 46.9153 301.753C54.1125 301.753 61.3097 301.753 68.507 301.753C68.8802 301.753 69.2533 301.753 69.6799 301.816C70.1064 301.879 70.3729 302.259 70.3729 302.766C70.3729 303.272 70.1064 303.589 69.6265 303.652C69.3067 303.652 68.9335 303.652 68.6136 303.652C61.5763 303.652 54.539 303.652 47.5017 303.652C47.1818 303.652 46.8086 303.652 46.4888 303.652C46.1689 303.652 46.0622 303.905 46.1156 304.222C46.2222 304.792 46.3288 305.298 46.3821 305.868C47.0752 310.553 46.3821 314.922 44.2496 318.974C44.0364 319.354 43.6099 319.734 43.7698 320.114C43.983 320.62 44.5162 320.304 44.9427 320.367C45.2093 320.43 45.4758 320.367 45.6891 320.367C58.5908 320.367 71.5458 320.367 84.5008 320.367Z" fill="white"/>
<path d="M164.31 320.367C166.23 320.367 167.669 319.607 168.895 318.151C169.215 317.771 169.482 317.391 169.748 317.011C170.761 315.618 170.761 315.618 169.588 314.415C160.312 304.728 150.982 295.105 141.706 285.418C141.439 285.165 141.172 284.911 140.959 284.595C140.693 284.215 140.693 283.708 140.959 283.328C141.226 282.949 141.599 282.885 141.972 283.202C142.292 283.518 142.665 283.835 142.985 284.152C152.048 293.585 161.111 303.019 170.228 312.453C170.761 313.023 171.241 313.972 171.934 313.909C172.52 313.846 172.894 312.833 173.32 312.263C175.879 308.717 175.613 304.475 172.68 301.373C156.207 284.215 139.733 267.12 123.206 249.962C122.939 249.709 122.673 249.456 122.406 249.202C122.14 248.949 121.927 249.076 121.873 249.456C121.767 250.215 121.767 250.975 121.553 251.672C121.233 252.811 121.553 253.444 122.246 254.204C131.629 263.891 141.013 273.641 150.342 283.392C150.609 283.708 150.929 283.962 151.195 284.341C151.515 284.721 151.515 285.165 151.249 285.544C150.982 285.924 150.556 285.988 150.236 285.734C149.916 285.481 149.649 285.165 149.329 284.848C140.16 275.288 130.99 265.791 121.82 256.23C121.553 255.977 121.287 255.724 121.074 255.407C120.807 255.154 120.647 255.217 120.487 255.597C120.327 255.914 120.221 256.23 120.061 256.547C117.981 260.852 114.889 263.765 110.891 265.221C110.518 265.347 109.931 265.284 109.878 265.664C109.771 266.17 110.358 266.36 110.624 266.74C110.784 266.93 110.997 267.12 111.211 267.373C122.939 279.53 134.615 291.686 146.344 303.842C150.982 308.654 155.567 313.466 160.205 318.278C161.378 319.607 162.764 320.43 164.31 320.367Z" fill="white"/>
<path d="M344.881 324.862C345.147 324.862 345.414 324.862 345.627 324.862C346.8 324.862 348.026 324.862 349.199 324.862C349.999 324.862 349.999 324.799 349.892 323.976C349.892 323.786 349.786 323.596 349.786 323.406C349.093 317.834 352.238 312.769 356.876 312.01C357.409 311.946 357.996 311.946 358.529 311.946C358.955 311.946 359.062 311.693 358.902 311.25C358.796 310.933 358.689 310.617 358.582 310.237C356.93 305.425 355.277 300.613 353.624 295.738C350.425 286.431 347.227 277.124 344.028 267.753C343.548 266.36 343.548 266.36 342.428 266.804C335.871 269.526 329.314 272.249 322.809 274.971C321.796 275.414 321.796 275.414 322.17 276.681C326.435 289.343 330.646 301.943 334.911 314.605C335.178 315.428 335.551 315.998 336.244 316.252C336.991 316.505 337.31 317.075 337.577 317.898C338.163 319.924 338.857 321.886 339.443 323.849C339.656 324.609 340.029 324.862 340.669 324.862C342.055 324.799 343.441 324.862 344.881 324.862Z" fill="#FAE0D6"/>
<path d="M270.51 2.026C270.083 2.026 269.55 2.08931 269.07 2.15263C268.803 2.15263 268.537 2.21594 268.324 2.27925C263.685 3.35558 260.273 6.52127 257.928 11.3331C254.676 18.1077 254.142 25.2621 256.488 32.5432C258.834 39.9509 263.366 44.5095 270.136 45.4592C276.107 46.2822 282.398 42.9899 285.864 35.5189C286.13 34.9491 286.77 34.2527 286.397 33.6828C286.183 33.3029 285.384 33.8095 284.851 33.9361C277.92 35.5822 270.776 31.5302 267.524 24.1225C267.417 23.8692 267.311 23.6793 267.257 23.426C266.938 22.4763 267.204 21.9698 268.057 21.8432C268.377 21.7799 268.75 21.8432 269.07 21.8432C269.443 21.8432 269.816 21.9698 270.19 21.7799C269.923 21.4633 269.497 21.4 269.177 21.2733C268.324 20.9568 267.524 20.5136 266.778 19.8804C266.138 19.3106 265.925 18.7408 266.244 18.2343C266.671 17.6012 267.151 17.8544 267.631 18.2343C267.737 18.2976 267.844 18.4242 267.951 18.4876C268.644 19.0574 269.443 19.3739 270.296 19.6272C273.655 20.5769 277.28 18.4242 278.773 14.6254C280.266 10.7 279.253 6.33133 276.267 3.86209C274.508 2.46919 272.589 2.026 270.51 2.026Z" fill="white"/>
<path d="M425.917 309.667C425.917 305.172 425.917 300.676 425.917 296.181C425.917 295.801 425.917 295.485 425.917 295.105C425.917 294.535 425.65 294.282 425.223 294.282C424.53 294.282 423.837 294.282 423.198 294.282C416.64 294.282 410.083 294.282 403.525 294.282C402.246 294.282 402.246 294.282 402.246 295.801C402.246 298.46 402.246 301.056 402.246 303.715C402.246 304.855 402.352 305.931 402.619 307.008C403.632 311.63 404.591 316.188 405.658 320.81C405.924 322.076 405.978 323.089 405.018 323.913C404.805 324.102 404.538 324.356 404.645 324.609C404.751 325.052 405.178 324.799 405.444 324.862C405.551 324.862 405.604 324.862 405.711 324.862C412.055 324.862 418.399 324.862 424.744 324.862C425.01 324.862 425.277 324.862 425.49 324.862C425.81 324.862 425.97 324.609 425.97 324.292C425.97 323.913 425.97 323.469 425.97 323.089C425.917 318.594 425.917 314.162 425.917 309.667Z" fill="#ACDCF6"/>
<path d="M310.228 277.947C310.228 280.289 310.228 282.632 310.228 284.911C310.228 292.256 310.228 299.6 310.228 306.944C310.228 308.654 310.228 308.654 311.614 308.844C318.491 309.667 325.262 311.376 331.766 314.162C332.139 314.352 332.619 314.795 332.939 314.415C333.152 314.099 332.779 313.529 332.619 313.023C328.78 301.626 324.942 290.166 321.103 278.77C320.837 277.947 320.784 276.744 320.144 276.364C319.451 275.921 318.651 276.744 317.905 277.06C316.572 277.567 316.412 277.44 315.985 275.921C314.546 270.729 313.107 265.537 311.667 260.346C311.027 258.003 311.027 258.003 313 257.053C313.586 256.8 313.693 256.484 313.426 255.85C312.627 253.508 311.88 251.165 311.027 248.823C310.867 248.379 310.867 247.493 310.388 247.556C310.121 247.556 310.228 248.443 310.228 248.949C310.228 258.573 310.228 268.26 310.228 277.947Z" fill="white"/>
<path d="M228.339 367.472C223.967 367.472 219.649 367.789 215.331 368.422C207.867 369.498 200.563 371.524 193.472 374.5C191.66 375.26 189.9 376.083 188.088 376.969C187.821 377.096 187.395 377.159 187.501 377.603C187.715 378.299 188.088 378.995 188.514 379.502C188.888 379.882 189.314 379.439 189.687 379.312C200.137 374.563 210.906 371.841 222.048 371.018C229.938 370.448 237.722 370.891 245.506 372.411C253.876 373.994 261.979 376.779 269.763 380.705C270.403 381.021 270.936 380.958 271.576 380.642C283.784 374.563 296.473 371.271 309.694 370.765C317.212 370.511 324.675 371.145 332.086 372.791C338.75 374.247 345.254 376.4 351.598 379.312C352.611 379.755 352.665 379.819 353.144 378.869C354.051 377.159 354.157 377.413 352.558 376.653C342.802 371.968 332.726 369.118 322.223 367.979C314.119 367.092 306.069 367.409 298.019 368.739C289.009 370.258 280.266 373.107 271.896 377.413C270.989 377.856 270.243 377.856 269.337 377.413C256.275 370.765 242.574 367.536 228.339 367.472Z" fill="white"/>
<path d="M84.3409 293.522C70.906 293.522 57.4712 293.522 44.0364 293.522C43.6632 293.522 43.29 293.522 42.8635 293.522C42.6502 293.522 42.4903 293.649 42.3837 293.902C42.0105 295.295 42.437 295.928 43.6632 295.991C43.9831 295.991 44.2496 295.991 44.5695 295.991C70.8527 295.991 97.0827 295.991 123.366 295.991C123.739 295.991 124.112 295.991 124.539 295.991C128.537 296.118 131.843 299.98 132.003 304.729C132.109 307.641 132.109 310.617 132.003 313.529C131.843 317.265 130.243 319.987 127.311 321.57C126.138 322.203 124.859 322.33 123.579 322.33C97.1893 322.33 70.7994 322.33 44.4096 322.33C43.9297 322.33 43.4499 322.33 43.0234 322.33C42.8102 322.33 42.5436 322.393 42.5436 322.71C42.4903 323.343 42.3304 324.039 42.5969 324.672C42.8102 325.115 43.29 324.862 43.6632 324.926C43.8764 324.926 44.0897 324.926 44.3029 324.926C49.7942 324.926 55.2854 324.926 60.8299 324.926C81.9951 324.926 103.107 324.926 124.272 324.926C130.297 324.926 134.348 318.784 134.188 313.149C134.082 310.49 134.188 307.768 134.188 305.108C134.188 304.349 134.135 303.589 134.028 302.829C132.909 296.814 128.217 293.522 124.219 293.585C110.837 293.585 97.5625 293.522 84.3409 293.522Z" fill="#EDCFE4"/>
<path d="M227.806 259.333C227.699 258.763 227.219 258.763 226.793 258.573C219.862 255.661 212.985 252.811 206.054 249.899C203.815 248.949 201.576 248 199.284 247.113C198.964 246.987 198.537 246.67 198.324 247.366C197.737 249.519 197.098 251.672 196.511 253.824C196.405 254.204 196.511 254.394 196.778 254.521C197.044 254.647 197.364 254.774 197.631 254.901C199.977 255.914 202.376 256.863 204.721 257.876C205.361 258.13 205.628 258.7 205.414 259.206C205.148 259.903 204.721 259.839 204.242 259.649C203.655 259.459 203.122 259.206 202.536 258.953C200.563 258.13 198.59 257.307 196.618 256.484C196.298 256.357 195.871 256.04 195.658 256.737C195.125 258.573 194.645 260.409 194.112 262.182C194.006 262.625 194.112 262.942 194.539 263.068C194.752 263.131 194.912 263.258 195.125 263.321C201.469 265.981 207.814 268.576 214.158 271.236C216.823 272.312 219.436 273.452 222.101 274.528C223.274 275.034 223.274 274.971 223.647 273.705C224.021 272.312 224.447 270.919 224.82 269.526C225.14 268.323 225.14 268.26 224.074 267.817C220.022 266.107 215.97 264.398 211.919 262.752C211.599 262.625 211.279 262.498 210.959 262.308C210.586 262.055 210.479 261.612 210.692 261.105C210.852 260.662 211.172 260.536 211.545 260.599C211.919 260.726 212.292 260.852 212.612 261.042C216.61 262.688 220.662 264.398 224.66 266.044C225.62 266.424 225.62 266.424 225.993 265.284C226.473 263.511 227.006 261.739 227.486 259.966C227.646 259.903 227.699 259.649 227.806 259.333Z" fill="#ACDCF6"/>
<path d="M336.404 259.839C335.924 259.902 335.551 259.839 335.391 259.333C335.231 258.763 335.338 258.32 335.818 258.066C336.084 257.94 336.351 257.813 336.671 257.686C338.963 256.737 341.256 255.787 343.548 254.837C344.454 254.457 344.454 254.457 344.134 253.318C343.655 251.545 343.175 249.772 342.642 247.999C342.322 246.86 342.322 246.86 341.416 247.24C340.083 247.81 338.75 248.379 337.417 248.886C329.633 252.115 321.796 255.407 314.013 258.636C312.947 259.079 312.947 259.079 313.266 260.282C313.746 261.992 314.226 263.765 314.706 265.474C315.026 266.614 315.026 266.677 316.039 266.234C320.037 264.588 324.089 262.878 328.087 261.232C328.461 261.105 328.834 260.915 329.207 260.852C329.527 260.789 329.793 260.915 329.953 261.232C330.113 261.549 330.167 261.865 330.007 262.245C329.847 262.562 329.58 262.688 329.26 262.815C328.407 263.195 327.554 263.511 326.701 263.891C323.289 265.284 319.877 266.74 316.465 268.133C315.559 268.513 315.559 268.513 315.825 269.653C316.252 271.172 316.732 272.692 317.105 274.275C317.318 275.034 317.585 275.288 318.171 274.908C318.384 274.781 318.651 274.718 318.918 274.591C324.409 272.312 329.953 270.033 335.444 267.753C338.91 266.297 342.375 264.904 345.787 263.448C346.693 263.068 346.693 263.068 346.427 261.929C346 260.409 345.574 258.826 345.147 257.307C344.881 256.294 344.828 256.294 343.975 256.673C341.682 257.623 339.39 258.573 337.097 259.523C336.884 259.586 336.617 259.713 336.404 259.839Z" fill="#ACDCF6"/>
<path d="M164.417 324.862C167.296 324.799 169.801 323.596 171.774 321C173.373 318.911 174.92 316.821 176.412 314.732C178.012 312.453 178.811 309.857 178.705 306.881C178.598 303.272 177.319 300.423 175.026 298.017C158.179 280.543 141.386 263.068 124.592 245.594C124.379 245.404 124.219 245.214 124.006 244.96C123.739 244.644 123.526 244.77 123.259 245.024C122.14 246.227 122.14 246.353 123.313 247.556C140.106 265.031 156.953 282.505 173.747 299.98C177.265 303.652 177.585 309.287 174.493 313.466C173.16 315.302 171.827 317.138 170.441 318.974C167.349 323.089 162.658 323.406 159.139 319.797C146.664 306.881 134.242 293.902 121.767 280.986C117.342 276.364 112.917 271.805 108.492 267.183C107.639 266.297 107.639 266.297 106.892 267.247C106.253 268.133 106.253 268.133 106.999 269.02C107.265 269.273 107.532 269.589 107.745 269.843C118.568 281.113 129.444 292.382 140.266 303.652C146.131 309.73 151.942 315.808 157.806 321.887C159.725 323.786 161.911 324.736 164.417 324.862Z" fill="#ACDCF6"/>
<path d="M414.028 282.695C417.653 282.695 421.278 282.695 424.904 282.695C425.437 282.695 425.97 282.759 425.97 281.809C425.97 278.517 425.97 275.224 425.97 271.932C425.97 271.299 425.703 271.046 425.17 271.046C424.264 271.046 423.358 271.046 422.505 271.046C420.532 271.046 420.532 271.046 420.532 268.703C420.532 267.373 420.532 267.31 419.306 267.31C416.107 267.31 412.908 267.31 409.709 267.31C407.95 267.31 407.95 267.31 407.843 269.463C407.843 269.526 407.843 269.589 407.843 269.589C407.79 270.666 407.63 270.919 406.724 270.982C405.551 271.046 404.431 270.982 403.259 270.982C402.299 270.982 402.299 271.046 402.246 272.185C402.246 275.161 402.246 278.137 402.246 281.176C402.246 282.569 402.246 282.569 403.418 282.569C406.937 282.695 410.509 282.695 414.028 282.695Z" fill="#ACDCF6"/>
<path d="M144.265 324.862C148.37 324.862 152.528 324.862 156.633 324.862C156.953 324.862 157.22 324.862 157.539 324.862C157.699 324.862 157.913 324.926 157.966 324.736C158.073 324.482 157.859 324.419 157.753 324.292C157.22 323.786 156.686 323.279 156.207 322.773C151.089 317.455 145.971 312.136 140.853 306.818C139.2 305.108 137.494 303.336 135.841 301.626C135.735 301.499 135.575 301.373 135.415 301.499C135.361 301.563 135.361 301.816 135.415 301.943C135.841 303.715 135.735 305.552 135.735 307.388C135.735 309.35 135.735 311.313 135.735 313.276C135.735 317.581 134.242 321.063 131.47 323.849C131.256 324.102 130.99 324.292 130.776 324.482C130.67 324.609 130.617 324.862 130.883 324.926C131.203 324.989 131.576 324.926 131.896 324.926C136.001 324.862 140.16 324.862 144.265 324.862Z" fill="white"/>
<path d="M79.5428 285.988C73.4118 285.988 67.2809 285.988 61.1499 285.988C60.7767 285.988 60.4035 285.988 59.977 285.988C58.7508 286.178 58.0044 287.191 57.9511 288.647C57.8978 290.166 58.5909 291.179 59.8171 291.433C60.2969 291.559 60.83 291.559 61.3631 291.559C73.4118 291.559 85.4605 291.559 97.5626 291.559C98.0424 291.559 98.5222 291.559 98.9487 291.496C100.282 291.306 101.081 290.166 100.975 288.52C100.921 287.064 100.015 286.051 98.7355 285.924C98.4156 285.924 98.0424 285.924 97.7225 285.924C91.6448 285.988 85.6205 285.988 79.5428 285.988Z" fill="#CCD6DA"/>
<path d="M274.028 201.274C280.159 201.401 288.103 200.578 295.993 198.741C299.832 197.855 303.563 196.715 307.242 195.323C307.615 195.196 308.042 195.196 308.255 194.753C308.362 194.499 308.362 192.41 308.202 192.347C307.722 192.094 307.295 192.537 306.869 192.663C306.549 192.79 306.229 192.917 305.909 193.043C295.247 196.905 284.317 198.298 273.228 198.425C266.724 198.488 260.273 197.982 253.823 197.032C247.105 196.019 240.548 194.563 233.99 192.537C232.337 192.03 232.337 192.03 232.391 194.056C232.391 194.689 232.604 194.943 233.084 195.133C233.457 195.259 233.83 195.386 234.203 195.512C246.732 199.375 259.314 201.274 274.028 201.274Z" fill="#151D38"/>
<path d="M414.081 292.446C415.414 292.446 416.747 292.446 418.026 292.446C420.319 292.446 422.611 292.446 424.904 292.446C425.863 292.446 425.863 292.382 425.917 291.369C425.917 289.47 425.917 287.507 425.917 285.608C425.917 284.785 425.65 284.531 425.01 284.531C424.69 284.531 424.317 284.531 423.997 284.531C417.546 284.531 411.042 284.531 404.591 284.531C404.058 284.531 403.578 284.531 403.045 284.531C402.352 284.468 402.139 284.848 402.192 285.608C402.246 287.444 402.192 289.217 402.192 291.053C402.192 292.382 402.192 292.382 403.312 292.382C406.937 292.446 410.509 292.446 414.081 292.446Z" fill="white"/>
<path d="M230.631 268.386C230.631 262.055 230.631 255.724 230.631 249.392C230.631 249.013 230.631 248.569 230.631 248.189C230.631 247.999 230.631 247.746 230.418 247.683C230.205 247.683 230.205 247.936 230.152 248.126C229.245 250.722 228.392 253.255 227.486 255.85C227.273 256.42 227.326 256.8 227.859 256.99C228.072 257.053 228.286 257.18 228.446 257.243C229.725 257.813 229.832 258.003 229.405 259.586C228.339 263.385 227.273 267.183 226.26 270.982C225.78 272.692 225.353 274.338 224.874 276.047C224.447 277.504 224.287 277.63 223.008 277.124C222.528 276.934 222.048 276.681 221.568 276.491C220.662 276.111 220.662 276.111 220.289 277.25C219.916 278.39 219.489 279.53 219.116 280.606C218.743 281.746 218.743 281.746 219.649 282.315C222.848 284.405 225.993 286.431 229.192 288.52C230.578 289.407 230.631 289.786 230.631 287.57C230.631 281.176 230.631 274.781 230.631 268.386Z" fill="white"/>
<path d="M389.824 317.898C388.864 317.898 387.958 317.898 386.998 317.898C383.693 317.898 380.334 317.898 377.028 317.898C376.069 317.898 375.909 318.278 376.175 319.291C376.335 319.987 376.709 320.05 377.242 320.05C379.587 320.05 381.24 321.317 382.093 323.913C382.306 324.609 382.626 324.799 383.213 324.799C389.237 324.799 395.208 324.799 401.232 324.799C401.766 324.799 402.085 324.609 402.459 324.166C404.591 321.507 404.325 322.583 403.631 319.227C403.312 317.834 403.312 317.834 402.139 317.834C398.034 317.898 393.929 317.898 389.824 317.898Z" fill="#EDCFE4"/>
<path d="M389.664 304.095C392.703 304.095 395.688 304.095 398.727 304.095C399.047 304.095 399.313 304.095 399.633 304.095C400.06 304.095 400.22 303.842 400.113 303.336C399.953 302.513 399.74 301.689 399.58 300.866C399.42 300.17 399.367 299.347 399.047 298.904C398.62 298.271 397.821 298.714 397.234 298.65C397.181 298.65 397.128 298.65 397.128 298.65C396.488 298.65 396.168 298.271 396.168 297.511C396.168 297.258 396.168 297.004 396.168 296.751C396.115 295.548 396.115 295.548 395.102 295.548C391.796 295.548 388.438 295.548 385.132 295.548C383.639 295.548 383.639 295.548 383.533 297.384C383.533 297.447 383.533 297.511 383.533 297.511C383.533 298.271 383.213 298.65 382.626 298.65C382.093 298.65 381.613 298.65 381.08 298.65C380.707 298.65 380.441 298.84 380.334 299.284C380.014 300.676 379.748 302.133 379.428 303.526C379.321 303.905 379.481 304.095 379.801 304.159C380.121 304.222 380.494 304.159 380.814 304.222C383.693 304.095 386.678 304.095 389.664 304.095Z" fill="#EDCFE4"/>
<path d="M354.637 324.862C355.33 324.862 356.023 324.862 356.663 324.862C357.25 324.862 357.303 324.546 357.143 324.039C356.77 323.026 356.45 322.013 356.077 320.937C355.863 320.304 355.917 319.797 356.45 319.544C356.983 319.227 357.356 319.607 357.569 320.177C357.889 321 358.156 321.823 358.476 322.71C359.009 324.229 359.489 325.749 360.075 327.205C360.875 329.104 362.687 329.864 364.34 329.104C365.833 328.408 366.846 326.318 366.313 324.546C365.673 322.14 364.873 319.734 363.807 317.581C362.154 314.289 358.476 312.896 355.544 314.352C352.558 315.872 350.799 319.86 351.545 323.533C351.812 324.862 351.812 324.862 352.984 324.862C353.518 324.862 354.051 324.862 354.637 324.862Z" fill="#FAE0D6"/>
<path d="M374.896 322.33C374.896 322.013 374.896 321.886 374.896 321.823C375.109 319.417 373.456 317.644 371.75 317.518C369.884 317.391 368.445 318.974 368.125 321.317C367.805 323.786 368.125 326.382 367.432 328.788C367.325 329.104 367.379 329.484 367.379 329.864C367.379 332.017 368.658 333.789 370.418 334.043C372.23 334.296 373.883 332.84 374.096 330.56C374.416 327.711 374.629 324.926 374.896 322.33Z" fill="#FAE0D6"/>
<path d="M397.341 314.415C397.82 314.352 398.407 314.289 398.887 313.972C399.473 313.529 399.686 313.023 399.473 312.516C399.26 311.946 398.833 311.82 398.194 312.2C397.501 312.643 396.914 312.516 396.274 312.01C394.942 310.87 393.715 310.997 392.383 312.136C391.21 313.149 390.837 313.149 389.664 312.073C389.557 312.01 389.45 311.883 389.344 311.82C387.851 310.553 386.465 310.553 384.972 311.82C384.599 312.136 384.226 312.516 383.853 312.833C383.319 313.276 382.733 313.276 382.146 313.086C381.507 312.896 381.027 312.2 381.027 311.44C381.027 310.743 381.4 310.11 382.04 309.857C382.306 309.73 382.626 309.73 382.893 309.667C383.373 309.54 383.746 309.287 383.693 308.654C383.639 308.021 383.266 307.704 382.733 307.704C381.4 307.641 379.854 308.844 379.481 310.363C379.054 312.01 379.641 313.846 380.92 314.669C382.146 315.492 383.426 315.492 384.652 314.605C385.079 314.289 385.452 313.909 385.878 313.529C386.838 312.706 387.318 312.706 388.331 313.466C388.704 313.719 389.024 314.099 389.397 314.352C390.09 314.859 390.89 315.112 391.69 314.795C392.223 314.605 392.756 314.352 393.182 313.909C393.929 313.149 394.675 313.023 395.475 313.782C396.008 314.226 396.594 314.415 397.341 314.415Z" fill="#EDCFE4"/>
<path d="M380.814 326.445C381.027 323.849 379.268 322.076 377.615 322.013C376.709 321.95 376.495 322.14 376.442 323.279C376.335 324.546 376.282 325.812 376.122 327.015C375.909 328.724 375.962 330.434 375.482 332.08C375.216 332.966 375.322 333.093 376.069 333.346C377.988 334.106 380.121 332.65 380.44 330.117C380.6 328.914 380.654 327.648 380.814 326.445Z" fill="#FAE0D6"/>
<path d="M414.134 262.942C411.788 262.942 409.443 262.942 407.097 262.942C406.031 262.942 406.031 262.942 406.031 264.208C406.031 264.334 406.031 264.524 406.031 264.651C405.977 265.411 406.297 265.601 406.884 265.601C407.79 265.601 408.696 265.601 409.549 265.601C413.281 265.601 417.066 265.601 420.798 265.601C421.118 265.601 421.545 265.791 421.758 265.474C422.184 264.904 421.971 264.145 421.918 263.448C421.918 262.878 421.438 262.942 421.118 262.942C418.826 262.942 416.48 262.942 414.134 262.942Z" fill="#151D38"/>
<path d="M262.513 301.183C262.513 300.423 262.619 299.663 262.513 298.904C262.246 296.308 261.126 294.535 259.101 293.522C258.674 293.332 258.461 293.332 258.567 294.029C258.727 294.725 258.781 295.421 258.994 296.118C259.154 296.751 259.047 297.574 259.527 298.081C259.954 298.524 260.06 299.03 259.954 299.537C259.687 301.5 260.433 303.082 261.34 304.539C261.66 305.045 261.873 305.108 262.193 304.602C262.406 304.285 262.459 303.905 262.459 303.462C262.513 302.703 262.513 301.943 262.513 301.183Z" fill="#FAE0D6"/>
<path d="M263.579 318.974C263.632 316.885 263.312 316.188 261.766 315.239C261.18 314.859 260.593 314.162 260.113 314.289C259.687 314.415 259.474 315.492 259.1 316.062C258.301 317.391 258.301 318.784 258.994 320.177C259.9 322.013 261.126 323.596 262.299 325.179C262.672 325.685 262.886 325.559 262.939 324.989C263.205 323.153 263.579 321.317 263.579 318.974Z" fill="#CCD6DA"/>
<path d="M259.687 311.25C259.687 311.06 259.634 310.87 259.42 310.87C259.314 310.87 259.154 310.933 259.207 311.123C259.207 311.313 259.314 311.503 259.474 311.503C259.58 311.566 259.634 311.44 259.687 311.25Z" fill="#151D38"/>
<path d="M485.893 326.382C485.467 326.698 484.987 326.635 484.56 326.635C475.87 326.635 467.181 326.635 458.491 326.635C458.224 326.635 457.957 326.635 457.744 326.635C457.264 326.572 457.051 326.318 457.051 325.749C457.051 325.179 457.318 324.926 457.744 324.862C458.064 324.799 458.331 324.799 458.65 324.799C467.287 324.799 475.87 324.799 484.507 324.799C485.04 324.799 485.52 324.799 486 325.115C485.893 325.622 485.893 326.002 485.893 326.382Z" fill="#151D38"/>
<path d="M429.915 311.82C429.915 307.514 429.915 303.209 429.915 298.904C429.915 297.194 430.075 297.004 431.514 296.941C431.781 296.941 432.047 296.941 432.261 296.941C432.581 296.941 432.687 296.688 432.687 296.308C432.687 295.991 432.687 295.738 432.367 295.611C431.194 295.041 431.194 295.041 431.194 293.522C431.194 291.623 431.194 289.66 431.194 287.76C431.194 286.367 431.301 286.241 432.527 286.241C435.566 286.241 438.605 286.241 441.59 286.241C442.763 286.241 442.87 286.368 442.87 287.824C442.87 289.913 442.87 292.002 442.87 294.028C442.87 295.231 442.87 295.295 441.857 295.548C441.43 295.675 441.324 295.928 441.324 296.371C441.324 296.878 441.644 296.878 441.964 296.941C442.017 296.941 442.07 296.941 442.07 296.941C444.096 297.131 444.096 297.131 444.096 299.41C444.096 307.704 444.096 315.998 444.096 324.292C444.096 324.672 444.096 325.116 444.096 325.495C444.096 326.129 443.776 326.508 443.243 326.572C443.03 326.572 442.816 326.572 442.603 326.572C438.871 326.572 435.193 326.572 431.461 326.572C430.022 326.572 429.862 326.382 429.862 324.609C429.915 320.43 429.915 316.125 429.915 311.82ZM434.233 311.503C434.233 313.213 434.233 314.922 434.233 316.695C434.233 317.328 434.446 317.645 434.98 317.581C436.259 317.581 437.539 317.581 438.818 317.581C439.405 317.581 439.671 317.391 439.671 316.631C439.671 313.213 439.671 309.857 439.671 306.438C439.671 305.741 439.511 305.425 438.871 305.425C437.645 305.488 436.419 305.425 435.14 305.425C434.287 305.425 434.233 305.488 434.233 306.565C434.233 308.274 434.233 309.857 434.233 311.503ZM437.005 293.775C438.178 293.775 439.404 293.775 440.577 293.775C441.164 293.775 441.43 293.522 441.377 292.762C441.324 291.496 441.377 290.23 441.377 288.963C441.377 288.33 441.217 288.014 440.631 288.077C438.232 288.077 435.886 288.077 433.487 288.077C432.954 288.077 432.74 288.33 432.74 288.963C432.74 290.23 432.74 291.496 432.74 292.762C432.74 293.585 433.06 293.775 433.7 293.775C434.82 293.775 435.939 293.775 437.005 293.775Z" fill="#151D38"/>
<path d="M14.5544 326.698C10.2894 326.698 6.02435 326.698 1.75933 326.698C1.43945 326.698 1.06625 326.698 0.746377 326.698C0.319874 326.635 0 326.319 0 325.812C0 325.306 0.319874 324.989 0.746377 324.926C1.06625 324.862 1.43945 324.862 1.75933 324.862C10.2894 324.862 18.8194 324.862 27.3495 324.862C27.6694 324.862 28.0426 324.862 28.3624 324.926C28.7889 324.989 29.0555 325.306 29.0555 325.812C29.0555 326.319 28.7889 326.635 28.3624 326.698C28.0426 326.698 27.6694 326.698 27.3495 326.698C23.0845 326.698 18.8194 326.698 14.5544 326.698Z" fill="#151D38"/>
<path d="M216.077 131.249C218.956 131.249 221.088 133.782 221.088 137.137C221.088 140.366 218.903 143.025 216.184 143.025C213.411 143.089 211.172 140.303 211.172 137.011C211.119 133.782 213.305 131.249 216.077 131.249Z" fill="#151D38"/>
<path d="M277.174 107.886C279.893 107.886 282.132 110.545 282.132 113.775C282.132 117.067 279.946 119.726 277.12 119.726C274.348 119.726 272.109 117.067 272.162 113.711C272.215 110.482 274.455 107.886 277.174 107.886Z" fill="#151D38"/>
<path d="M246.412 146.951C240.494 146.888 235.856 144.545 231.911 140.366C231.485 139.923 231.058 139.417 230.632 138.91C230.312 138.53 230.205 138.024 230.525 137.58C230.951 137.074 231.378 137.201 231.751 137.58C232.178 138.087 232.604 138.594 233.031 139.037C236.763 142.899 241.028 145.241 246.039 144.988C253.13 144.672 258.248 140.556 261.446 133.022C262.353 130.933 262.886 128.717 263.206 126.374C263.259 126.057 263.312 125.804 263.366 125.488C263.472 124.981 263.792 124.791 264.272 124.854C264.752 124.918 264.965 125.298 264.912 125.804C264.912 126.247 264.805 126.691 264.752 127.134C263.312 135.618 259.527 141.949 252.65 145.368C250.571 146.444 248.171 146.951 246.412 146.951Z" fill="#151D38"/>
<path d="M244.759 130.933C244.653 130.869 244.386 130.806 244.173 130.743C239.961 129.223 235.749 127.767 231.538 126.247C231.271 126.184 231.058 126.121 230.791 125.994C230.205 125.678 230.098 125.108 230.525 124.475C230.738 124.095 231.005 123.778 231.271 123.462C234.257 119.916 237.189 116.37 240.174 112.762C240.388 112.445 240.654 112.192 240.921 111.938C241.241 111.748 241.561 111.749 241.88 112.065C242.147 112.382 242.2 112.825 241.987 113.205C241.827 113.521 241.561 113.838 241.347 114.091C238.788 117.13 236.229 120.233 233.724 123.272C233.564 123.462 233.404 123.651 233.297 123.841C232.711 124.601 232.711 124.601 233.617 124.918C234.15 125.108 234.683 125.298 235.216 125.488C238.362 126.627 241.507 127.704 244.653 128.843C244.919 128.907 245.132 129.033 245.399 129.16C245.879 129.35 246.092 129.793 245.932 130.363C245.666 130.869 245.292 130.996 244.759 130.933Z" fill="#151D38"/>
<path d="M320.41 115.484C320.41 122.195 315.399 127.07 309.961 125.804C309.748 125.741 309.534 125.741 309.321 125.614C308.895 125.424 308.735 125.044 308.841 124.538C308.948 124.031 309.268 123.841 309.694 123.905C310.068 123.968 310.441 124.031 310.814 124.095C314.599 124.601 318.118 121.372 318.704 116.877C319.291 112.445 316.678 108.076 312.946 107.253C312.253 107.127 311.614 107 310.921 107.127C310.387 107.19 309.854 107.253 309.748 106.367C309.641 105.67 310.014 105.354 310.814 105.227C314.333 104.721 318.118 107.317 319.611 111.305C320.144 112.698 320.464 114.155 320.41 115.484Z" fill="#151D38"/>
<path d="M285.863 96.7432C285.863 97.0597 285.49 97.5029 285.01 97.4396C284.744 97.3763 284.424 97.1864 284.211 97.0597C276.907 92.5011 268.377 95.7301 264.325 103.391C264.165 103.644 264.059 103.961 263.899 104.151C263.632 104.467 263.259 104.467 262.939 104.214C262.619 103.961 262.512 103.581 262.619 103.138C262.726 102.758 262.886 102.378 263.099 102.062C267.684 93.5775 277.227 90.5384 284.744 95.2236C285.277 95.4769 285.863 95.6668 285.863 96.7432Z" fill="#151D38"/>
<path d="M214.691 116.307C218.689 116.244 221.248 117.004 223.647 118.46C223.914 118.65 224.181 118.776 224.447 118.966C224.767 119.283 224.927 119.663 224.767 120.169C224.554 120.739 224.127 120.802 223.701 120.612C223.381 120.486 223.114 120.233 222.794 120.106C215.97 116.117 207.867 118.713 203.602 126.184C203.389 126.564 203.175 126.944 202.962 127.324C202.696 127.64 202.376 127.704 202.056 127.514C201.683 127.26 201.629 126.88 201.683 126.501C201.736 126.057 202.002 125.677 202.216 125.298C205.468 119.409 210.106 116.497 214.691 116.307Z" fill="#151D38"/>
<path d="M250.837 155.625C249.291 155.625 247.798 155.182 246.412 154.422C246.145 154.295 245.879 154.105 245.665 153.852C245.452 153.599 245.346 153.219 245.505 152.902C245.665 152.523 245.932 152.269 246.305 152.333C246.572 152.396 246.838 152.586 247.105 152.712C251.263 154.865 255.795 153.282 258.301 148.787C258.461 148.47 258.621 148.154 258.834 147.901C259.1 147.584 259.42 147.584 259.793 147.774C260.113 148.027 260.273 148.407 260.113 148.787C260.007 149.104 259.847 149.42 259.687 149.737C257.821 153.472 254.462 155.625 250.837 155.625Z" fill="#151D38"/>
<path d="M301.431 336.385C301.964 336.322 302.55 336.259 303.084 336.195C303.777 336.195 304.203 336.512 304.203 337.145C304.203 337.842 303.777 338.095 303.297 338.158C301.857 338.285 300.418 338.411 298.978 338.538C292.954 339.171 287.09 340.627 281.332 342.717C281.065 342.843 280.746 342.907 280.479 343.033C279.786 343.223 279.359 343.033 279.253 342.463C279.093 341.894 279.359 341.514 280.052 341.197C280.212 341.134 280.372 341.071 280.532 341.007C287.303 338.411 294.287 336.892 301.431 336.385Z" fill="#151D38"/>
<path d="M306.069 322.52C307.882 322.456 310.068 322.71 312.253 322.836C312.573 322.836 312.84 322.899 313.16 322.963C313.586 323.089 313.8 323.406 313.8 323.913C313.746 324.419 313.48 324.736 313.053 324.799C312.893 324.799 312.733 324.799 312.52 324.736C306.922 324.229 301.271 324.292 295.673 325.115C295.353 325.179 294.98 325.179 294.66 325.179C294.234 325.179 293.967 324.862 293.914 324.356C293.86 323.849 294.127 323.469 294.554 323.406C295.033 323.279 295.46 323.216 295.94 323.153C299.138 322.773 302.391 322.52 306.069 322.52Z" fill="#151D38"/>
<path d="M288.316 354.62C288.316 355.253 287.996 355.506 287.516 355.633C286.13 356.076 284.744 356.519 283.358 357.026C281.652 357.659 279.999 358.355 278.293 359.052C278.027 359.178 277.813 359.242 277.6 359.368C277.174 359.558 276.8 359.368 276.64 358.862C276.427 358.355 276.587 357.849 277.014 357.595C277.174 357.469 277.387 357.405 277.6 357.279C280.639 355.886 283.731 354.81 286.823 353.797C287.09 353.733 287.303 353.67 287.57 353.67C288.049 353.797 288.316 354.113 288.316 354.62Z" fill="#151D38"/>
<path d="M281.812 328.344C281.332 328.344 281.012 328.218 280.906 327.648C280.799 327.141 280.959 326.762 281.385 326.572C281.652 326.445 281.972 326.382 282.238 326.255C284.424 325.559 286.61 324.989 288.796 324.482C289.062 324.419 289.329 324.356 289.542 324.419C289.862 324.482 290.075 324.672 290.129 325.115C290.182 325.559 290.129 325.939 289.755 326.128C289.542 326.255 289.276 326.318 289.009 326.382C286.77 326.888 284.531 327.521 282.292 328.218C282.185 328.218 281.972 328.281 281.812 328.344Z" fill="#151D38"/>
<path d="M253.556 340.121C253.289 340.057 252.969 339.994 252.65 339.868C247.372 338.538 242.094 337.715 236.709 337.525C228.712 337.208 220.822 338.221 213.038 340.501C212.772 340.564 212.452 340.691 212.185 340.691C211.759 340.754 211.439 340.501 211.332 339.994C211.226 339.488 211.439 339.108 211.812 338.918C212.078 338.791 212.398 338.728 212.665 338.601C218.689 336.892 224.767 335.879 231.005 335.625C238.308 335.309 245.559 336.132 252.703 337.968C253.129 338.095 253.556 338.158 253.929 338.348C254.409 338.538 254.676 338.918 254.516 339.488C254.409 339.994 254.036 340.184 253.556 340.121Z" fill="#151D38"/>
<path d="M248.491 354.493C247.638 354.303 246.732 354.113 245.826 353.923C241.774 353.1 237.722 352.594 233.617 352.467C229.299 352.277 225.034 352.53 220.768 353.163C220.182 353.227 219.596 353.353 219.009 353.417C218.316 353.48 217.89 353.163 217.836 352.594C217.783 351.897 218.209 351.644 218.743 351.517C219.702 351.391 220.662 351.137 221.675 351.074C227.486 350.378 233.297 350.251 239.161 350.948C242.2 351.327 245.239 351.771 248.278 352.53C248.544 352.594 248.811 352.657 249.024 352.72C249.451 352.91 249.664 353.29 249.557 353.797C249.344 354.303 249.024 354.493 248.491 354.493Z" fill="#151D38"/>
<path d="M213.305 352.594C213.731 352.594 214.051 352.847 214.158 353.353C214.264 353.86 214.051 354.24 213.625 354.43C213.411 354.493 213.198 354.556 213.038 354.62C209.093 355.633 205.201 356.899 201.416 358.545C201.203 358.672 200.936 358.798 200.67 358.798C200.296 358.862 199.977 358.608 199.87 358.165C199.763 357.785 199.817 357.342 200.137 357.089C200.35 356.899 200.616 356.836 200.83 356.709C204.721 355.063 208.667 353.67 212.718 352.72C212.878 352.72 213.092 352.657 213.305 352.594Z" fill="#151D38"/>
<path d="M221.088 322.456C221.728 322.456 222.101 322.646 222.155 323.279C222.208 323.913 221.888 324.229 221.408 324.292C220.289 324.546 219.169 324.799 217.996 325.052C215.117 325.685 212.292 326.572 209.466 327.585C209.306 327.648 209.146 327.711 208.986 327.775C208.293 327.965 207.867 327.775 207.76 327.205C207.6 326.382 208.08 326.129 208.56 325.939C211.759 324.736 215.011 323.786 218.316 323.026C219.329 322.836 220.289 322.646 221.088 322.456Z" fill="#151D38"/>
<path d="M252.863 353.733C252.969 353.797 253.183 353.797 253.396 353.86C256.435 354.81 259.474 355.886 262.406 357.216C262.619 357.279 262.779 357.405 262.992 357.469C263.525 357.722 263.739 358.165 263.525 358.798C263.312 359.432 262.886 359.432 262.352 359.242C259.154 357.785 255.902 356.582 252.649 355.569C252.17 355.443 251.743 355.126 251.85 354.43C251.903 353.923 252.276 353.67 252.863 353.733Z" fill="#151D38"/>
<path d="M93.9906 313.782C101.294 313.782 108.545 313.782 115.849 313.782C116.222 313.782 116.595 313.782 117.022 313.846C117.395 313.909 117.608 314.162 117.661 314.669C117.715 315.112 117.502 315.428 117.128 315.618C116.915 315.682 116.702 315.745 116.489 315.745C116.169 315.745 115.796 315.745 115.476 315.745C101.081 315.745 86.6867 315.745 72.2922 315.745C71.8124 315.745 71.3326 315.745 70.9061 315.682C70.4796 315.618 70.2664 315.239 70.2664 314.732C70.2664 314.162 70.5862 313.909 71.0127 313.909C71.3859 313.909 71.7591 313.909 72.1856 313.909C79.4362 313.782 86.74 313.782 93.9906 313.782Z" fill="#151D38"/>
<path d="M101.294 303.652C96.6562 303.652 92.018 303.652 87.3265 303.652C87.0066 303.652 86.6334 303.652 86.3136 303.652C85.8337 303.589 85.6205 303.272 85.6205 302.766C85.6205 302.196 85.8871 301.943 86.3136 301.879C86.5801 301.816 86.8467 301.816 87.0599 301.816C96.4963 301.816 105.879 301.816 115.316 301.816C115.369 301.816 115.422 301.816 115.422 301.816C116.329 301.816 116.755 302.133 116.755 302.766C116.755 303.399 116.435 303.652 115.422 303.652C110.731 303.652 106.039 303.652 101.294 303.652Z" fill="#151D38"/>
<path d="M64.0288 308.211C66.8544 308.211 69.7333 308.211 72.5588 308.211C73.6251 308.211 74.0516 308.464 74.0516 309.097C74.0516 309.794 73.6251 310.11 72.6122 310.11C67.7074 310.11 62.8026 310.11 57.9511 310.11C57.0448 310.11 56.1385 310.11 55.2855 310.11C54.9656 310.11 54.699 310.11 54.4325 309.92C54.1659 309.73 54.006 309.414 54.0593 309.034C54.1126 308.654 54.3258 308.337 54.6457 308.274C54.9656 308.211 55.3388 308.211 55.6587 308.211C58.4309 308.211 61.2565 308.211 64.0288 308.211Z" fill="#151D38"/>
<path d="M151.089 300.55C151.089 301.246 150.502 301.69 149.969 301.436C149.649 301.246 149.436 300.993 149.169 300.74C140.426 291.623 131.683 282.569 122.94 273.452C122.886 273.388 122.886 273.388 122.833 273.325C122.193 272.629 122.033 271.995 122.406 271.552C122.78 271.109 123.153 271.109 123.846 271.805C125.232 273.198 126.618 274.655 128.004 276.111C135.415 283.772 142.825 291.496 150.182 299.157C150.609 299.537 151.035 299.853 151.089 300.55Z" fill="#151D38"/>
<path d="M124.219 265.221C124.752 265.221 125.072 265.664 125.392 265.981C128.377 269.083 131.363 272.185 134.348 275.288C135.521 276.491 136.748 277.757 137.92 278.96C138.134 279.213 138.347 279.403 138.56 279.656C138.933 280.1 139.093 280.606 138.72 281.113C138.347 281.619 137.867 281.429 137.494 281.049C137.334 280.859 137.174 280.733 137.014 280.543C132.802 276.174 128.537 271.742 124.326 267.374C124.059 267.12 123.792 266.867 123.633 266.487C123.366 265.981 123.686 265.284 124.219 265.221Z" fill="#151D38"/>
<path d="M168.682 302.956C168.735 303.589 168.149 304.095 167.669 303.842C167.349 303.716 167.083 303.399 166.869 303.146C163.671 299.853 160.525 296.561 157.326 293.269C157.113 293.016 156.846 292.826 156.687 292.509C156.473 292.129 156.473 291.686 156.687 291.369C156.9 290.989 157.273 290.989 157.593 291.179C157.806 291.306 158.019 291.496 158.233 291.686C161.485 295.105 164.79 298.461 168.042 301.879C168.362 302.133 168.682 302.449 168.682 302.956Z" fill="#151D38"/>
<path d="M272.375 7.91419C273.495 7.85088 274.348 8.80058 274.348 10.1302C274.401 11.4598 273.602 12.4728 272.482 12.4728C271.362 12.4728 270.509 11.5231 270.456 10.2568C270.456 8.99052 271.309 7.91419 272.375 7.91419Z" fill="#151D38"/>
<path d="M262.779 320.937C262.779 321.886 262.566 322.33 262.033 322.52C261.5 322.646 261.02 322.52 260.86 321.886C260.38 320.304 259.953 318.594 259.687 316.948C259.58 316.315 259.9 315.872 260.433 315.745C260.913 315.618 261.446 315.682 261.606 316.315C262.086 317.898 262.459 319.607 262.779 320.937Z" fill="#151D38"/>
</svg>
